<svg xmlns="http://www.w3.org/2000/svg" width="64" height="64" viewBox="0 0 64 64" role="img" aria-label="favicon"><title>favicon</title><defs><linearGradient id="silver" x1="0" y1="0" x2="0.75" y2="1"><stop stop-color="#FFFFFF"/><stop offset="0.45" stop-color="#E6EBF2"/><stop offset="1" stop-color="#A7B3C3"/></linearGradient><radialGradient id="aura"><stop stop-color="#00C8F0" stop-opacity="0.19"/><stop offset="1" stop-color="#00C8F0" stop-opacity="0"/></radialGradient></defs><rect x="0" y="0" width="64" height="64" rx="13" fill="#090D14"/><g transform="translate(3 3) scale(0.056640625)"><path fill="#E6EBF2" fill-rule="evenodd" d="M300 60H724Q964 60 964 300V724Q964 964 724 964H300Q60 964 60 724V300Q60 60 300 60Z M300 155Q155 155 155 300V724Q155 869 300 869H724Q869 869 869 724V300Q869 155 724 155Z"/><path fill="#E6EBF2" d="M250 280H596V412H494V793H448Q354 793 354 699V412H328Q250 412 250 334Z"/><path fill="#E6EBF2" d="M648 467H794V682Q794 793 683 793H648Z"/><rect x="648" y="280" width="146" height="146" rx="42" fill="#00C8F0"/></g></svg>